<svg width="143" height="146" viewBox="0 0 143 146" fill="none" xmlns="http://www.w3.org/2000/svg">
<path fill-rule="evenodd" clip-rule="evenodd" d="M68.3779 108.176C67.8891 107.694 67.6585 107.024 67.6585 106.338L67.6585 101.62C67.6585 75.5807 78.9391 54.4719 97.247 54.4719L99.7518 54.4719C100.729 54.4719 101.628 54.9632 101.958 55.8827C102.528 57.4751 103.268 60.5561 103.268 65.8215C103.268 71.0868 102.528 74.1679 101.958 75.7602C101.628 76.6797 100.729 77.1711 99.7518 77.1711L97.247 77.1711C87.7534 77.1711 76.4963 88.1171 76.4963 101.62L76.4963 106.338C76.4963 107.024 76.2657 107.694 75.7768 108.176C74.9399 109 73.4914 110.184 72.0774 110.184C70.6634 110.184 69.2149 109 68.3779 108.176Z" fill="#576684"/>
<path fill-rule="evenodd" clip-rule="evenodd" d="M71.2195 140.26C63.7631 143.904 55.3754 146 46.2927 146C22.6926 146 0 117.512 0 82.3214C0 47.1305 22.6926 32.0488 46.2927 32.0488C53.7926 32.0488 62.6394 33.948 71.2195 37.5492C79.7997 33.948 88.6464 32.0488 96.1463 32.0488C119.746 32.0488 142.439 47.1305 142.439 82.3214C142.439 117.512 119.746 146 96.1463 146C87.0636 146 78.6759 143.904 71.2195 140.26Z" fill="#ACB4C9"/>
<path d="M46.2927 1C46.2927 0.447715 46.7404 0 47.2927 0H66.7805C71.1987 0 74.7805 3.58172 74.7805 8V27.4878C74.7805 28.0401 74.3328 28.4878 73.7805 28.4878H54.2927C49.8744 28.4878 46.2927 24.9061 46.2927 20.4878V1Z" fill="#576684"/>
</svg>
