<svg width="141" height="173" viewBox="0 0 141 173" fill="none" xmlns="http://www.w3.org/2000/svg">
<path d="M0.173507 6.01886C0.0762271 4.95855 0.813777 4.00553 1.87006 3.87143C8.87704 2.98183 34.9777 0 70.0238 0C105.07 0 131.171 2.98183 138.178 3.87143C139.234 4.00553 139.971 4.95855 139.874 6.01886C132.801 83.1104 122.817 149.224 120.137 166.369C119.731 168.967 117.688 170.922 115.071 171.18C108.182 171.859 93.1659 173 70.0238 173C46.8817 173 31.8658 171.859 24.9762 171.18C22.3599 170.922 20.3169 168.967 19.9108 166.369C17.2304 149.224 7.24643 83.1104 0.173507 6.01886Z" fill="#ACB4C9"/>
<path fill-rule="evenodd" clip-rule="evenodd" d="M119.148 55.8095C119.702 55.8601 120.105 56.3587 120.047 56.9118C115.153 104.133 109.798 141.358 108.257 151.747C108 153.482 106.64 154.818 104.897 155.005C99.8371 155.548 88.2125 156.524 70.0231 156.524C51.8337 156.524 40.2092 155.548 35.1495 155.005C33.4058 154.818 32.046 153.482 31.7888 151.747C30.2487 141.358 24.8931 104.133 19.999 56.9119C19.9417 56.3588 20.3446 55.8602 20.8984 55.8096C32.8579 54.717 50.2715 53.5476 70.0238 53.5476C89.7754 53.5476 107.188 54.7169 119.148 55.8095Z" fill="#576684"/>
</svg>
